<svg width="898" height="430" viewBox="0 0 898 430" fill="none" xmlns="http://www.w3.org/2000/svg">
<path d="M130.8 231C133.6 231 135.8 236.7 137.4 248.1C139 259.5 139.8 272.7 139.8 287.7C139.8 302.7 138.9 315.4 137.1 325.8C135.5 336.2 132.9 341.4 129.3 341.4H123C120.8 352.2 116.9 363.6 111.3 375.6C105.9 387.8 100.7 396.8 95.7 402.6C84.5 415.6 71 422.1 55.2 422.1C39.8 422.1 24.1 416 8.1 403.8C2.7 399.6 -8.9407e-08 394.6 -8.9407e-08 388.8C-8.9407e-08 382.4 2.8 376.7 8.4 371.7C18.4 362.5 26.9 354.1 33.9 346.5C41.1 338.9 48.1 330.5 54.9 321.3C63.1 310.1 69.5 300.4 74.1 292.2C78.7 283.8 84.1 273.1 90.3 260.1C94.9 250.3 99.6 243 104.4 238.2C109.4 233.4 115.6 231 123 231H130.8ZM126.176 341.4C122.976 341.4 120.576 336.3 118.976 326.1C117.376 315.9 116.576 303.6 116.576 289.2C116.576 274 117.476 260.5 119.276 248.7C121.076 236.9 123.376 231 126.176 231C145.976 231 161.076 229 171.476 225C182.076 221 191.576 215.9 199.976 209.7C204.976 205.7 208.876 203.7 211.676 203.7C212.876 203.7 213.776 203.8 214.376 204C216.376 204.6 217.876 205.6 218.876 207C219.876 208.4 220.976 210.5 222.176 213.3C224.176 218.9 227.176 223.3 231.176 226.5C235.376 229.5 242.776 231 253.376 231C256.776 231 259.376 236 261.176 246C262.976 256 263.876 268.2 263.876 282.6C263.876 298 262.876 311.7 260.876 323.7C259.076 335.5 256.576 341.4 253.376 341.4C240.176 341.4 229.976 337.8 222.776 330.6C215.776 323.4 211.376 315.7 209.576 307.5C204.976 312.5 198.376 317.6 189.776 322.8C181.376 328 171.576 332.4 160.376 336C149.376 339.6 137.976 341.4 126.176 341.4ZM159.176 136.8C153.776 140.4 149.276 145.8 145.676 153C142.276 160.2 139.876 167.6 138.476 175.2C138.276 176 138.176 177.1 138.176 178.5C138.176 182.7 139.976 184.8 143.576 184.8L147.176 184.2C167.776 177.6 190.576 174.3 215.576 174.3C221.376 174.3 225.476 174.4 227.876 174.6C229.876 173.2 232.376 170.4 235.376 166.2C238.576 161.8 241.276 157.1 243.476 152.1C245.876 146.9 247.076 142.1 247.076 137.7C247.076 134.1 246.076 131 244.076 128.4C242.076 126.2 238.676 124.5 233.876 123.3C229.076 122.1 223.476 121.5 217.076 121.5C207.076 121.5 196.676 122.9 185.876 125.7C175.276 128.3 166.376 132 159.176 136.8ZM253.924 341.4C247.724 341.4 243.024 336.6 239.824 327C236.624 317.2 235.024 305.2 235.024 291C235.024 275.6 236.824 261.8 240.424 249.6C243.824 237.2 248.224 231 253.624 231C263.424 231 272.824 229.1 281.824 225.3C290.824 221.5 297.124 215.2 300.724 206.4C302.124 202.8 303.924 200.1 306.124 198.3C308.524 196.3 311.024 195.3 313.624 195.3C316.024 195.3 318.124 196.3 319.924 198.3C321.924 200.1 323.224 202.8 323.824 206.4C324.824 213 325.324 220.6 325.324 229.2C325.324 246.4 323.124 263.5 318.724 280.5C314.524 297.5 307.024 311.9 296.224 323.7C285.624 335.5 271.524 341.4 253.924 341.4ZM223.624 401.4C223.624 400.2 226.324 396 231.724 388.8C236.924 381.8 242.524 375.1 248.524 368.7C254.324 362.3 258.124 358.9 259.924 358.5C262.924 358.1 267.424 359.4 273.424 362.4C279.624 365.4 285.024 369.4 289.624 374.4C294.424 379.6 296.824 384.9 296.824 390.3C296.824 395.7 294.924 401.2 291.124 406.8C287.324 412.6 282.824 417.6 277.624 421.8C272.424 426 268.124 428.5 264.724 429.3C261.524 429.3 254.524 425.4 243.724 417.6C232.924 410 226.224 404.6 223.624 401.4ZM553.111 333.3C546.111 332.3 536.611 330.5 524.611 327.9C512.811 325.1 501.411 322 490.411 318.6C475.811 314 465.211 308.2 458.611 301.2C452.211 294 449.011 284.5 449.011 272.7C449.011 264.3 450.511 254.6 453.511 243.6C459.111 222.4 469.211 203.2 483.811 186C498.411 168.6 514.011 154.8 530.611 144.6C547.411 134.4 561.311 128.9 572.311 128.1C581.311 127.5 585.811 132.2 585.811 142.2C585.811 148 584.211 156.2 581.011 166.8C577.211 179.8 573.611 189.9 570.211 197.1C567.011 204.1 562.611 208 557.011 208.8C543.411 210.8 530.511 215.2 518.311 222C506.111 228.6 496.511 235.9 489.511 243.9C490.111 244.3 492.411 245.4 496.411 247.2C500.411 249 507.511 251.8 517.711 255.6C527.111 259.2 534.611 262.7 540.211 266.1C546.011 269.3 550.811 273.6 554.611 279C558.411 284.4 560.311 291.2 560.311 299.4C560.311 303.6 559.611 309.3 558.211 316.5C556.811 323.7 555.111 329.3 553.111 333.3ZM437.911 407.4C419.511 407.4 403.911 403.2 391.111 394.8C378.311 386.6 368.711 375.5 362.311 361.5C356.111 347.5 353.011 331.9 353.011 314.7C353.011 303.5 354.311 292.6 356.911 282C360.511 268.2 364.111 256.3 367.711 246.3C371.511 236.1 375.911 226.6 380.911 217.8C382.711 214.6 384.811 212.2 387.211 210.6C389.611 209 392.011 208.2 394.411 208.2C397.411 208.2 399.911 209.3 401.911 211.5C404.111 213.5 405.211 216.2 405.211 219.6C405.211 221.2 404.911 222.9 404.311 224.7C400.711 234.5 398.911 244.1 398.911 253.5C398.911 267.9 404.111 280.8 414.511 292.2C424.911 303.4 441.711 313.3 464.911 321.9C474.711 325.5 483.911 328.5 492.511 330.9C501.311 333.1 512.011 335.6 524.611 338.4L534.211 340.5C542.211 342.1 546.211 345.9 546.211 351.9C546.211 355.1 544.811 358.8 542.011 363C537.011 370.6 528.911 377.8 517.711 384.6C506.711 391.4 494.111 396.9 479.911 401.1C465.711 405.3 451.711 407.4 437.911 407.4ZM686.421 205.8C687.221 202 688.621 193.5 690.621 180.3C691.421 172.3 692.521 165.5 693.921 159.9C695.321 153.3 699.521 145.6 706.521 136.8C713.721 127.8 723.721 116.1 736.521 101.7C741.521 96.5 746.321 93.9 750.921 93.9C754.521 93.9 757.521 95.4 759.921 98.4C762.321 101.2 763.421 105 763.221 109.8C762.021 142 759.021 174.1 754.221 206.1C754.021 207.7 753.921 210.1 753.921 213.3C753.921 219.1 755.421 223.5 758.421 226.5C761.421 229.5 767.021 231 775.221 231C777.021 231 778.421 236.5 779.421 247.5C780.621 258.5 781.221 271.4 781.221 286.2C781.221 301 780.621 313.9 779.421 324.9C778.421 335.9 777.021 341.4 775.221 341.4C762.021 341.4 750.621 338.5 741.021 332.7C731.421 326.7 724.121 319 719.121 309.6C704.321 329.6 685.221 340.8 661.821 343.2C660.221 343.4 657.821 343.5 654.621 343.5C642.021 343.5 630.621 340.4 620.421 334.2C610.421 328 602.321 319.2 596.121 307.8C590.121 296.2 586.721 282.8 585.921 267.6C585.521 260.2 586.721 254.5 589.521 250.5C592.521 246.5 597.521 244.1 604.521 243.3V242.7C606.721 230.5 608.121 218.4 608.721 206.4C609.121 201.8 609.521 197.1 609.921 192.3C610.521 187.5 611.221 183.4 612.021 180C613.421 173.4 617.821 165.3 625.221 155.7C632.821 146.1 642.621 134.8 654.621 121.8C659.621 116.6 664.421 114 669.021 114C672.621 114 675.521 115.4 677.721 118.2C680.121 121 681.321 124.6 681.321 129C681.321 136.4 680.721 146 679.521 157.8C678.321 169.4 676.921 178.9 675.321 186.3C672.321 199.1 667.621 209.3 661.221 216.9C655.021 224.5 646.021 232.3 634.221 240.3C650.421 238.1 662.521 234.5 670.521 229.5C678.721 224.5 684.021 216.6 686.421 205.8ZM774.802 231C797.402 231 816.502 229.3 832.102 225.9C847.902 222.3 858.702 216.2 864.502 207.6C859.702 209.6 854.102 211.2 847.702 212.4C841.302 213.6 834.902 214.2 828.502 214.2C814.302 214.2 803.302 211.2 795.502 205.2C787.102 198.4 782.902 188.2 782.902 174.6C782.902 164.4 785.202 152.4 789.802 138.6C795.002 123.8 801.302 110.8 808.702 99.6C816.302 88.4 826.002 82.8 837.802 82.8C839.602 82.8 841.002 82.9 842.002 83.1C853.002 84.7 862.702 90.1 871.102 99.3C879.702 108.5 886.202 120.4 890.602 135C895.202 149.4 897.502 164.9 897.502 181.5C897.502 191.9 896.602 202.4 894.802 213C890.602 235.8 883.302 256.9 872.902 276.3C862.702 295.7 849.202 311.4 832.402 323.4C815.802 335.4 796.602 341.4 774.802 341.4C771.402 341.4 768.902 336.7 767.302 327.3C765.502 317.9 764.602 306.2 764.602 292.2C764.602 276.8 765.602 262.8 767.602 250.2C769.602 237.4 772.002 231 774.802 231ZM799.402 43.5C799.402 42.3 802.002 38.2 807.202 31.2C812.602 24 818.202 17.2 824.002 10.8C830.002 4.39999 833.902 0.999985 835.702 0.59999C838.702 0.199996 843.202 1.5 849.202 4.49999C855.402 7.49999 860.802 11.6 865.402 16.8C870.202 21.8 872.602 27 872.602 32.4C872.602 37.8 870.702 43.4 866.902 49.2C863.102 54.8 858.602 59.7 853.402 63.9C848.202 68.1 843.902 70.6 840.502 71.4C837.302 71.4 830.302 67.6 819.502 60C808.702 52.2 802.002 46.7 799.402 43.5Z" fill="black"/>
</svg>
